<svg xmlns="http://www.w3.org/2000/svg" width="1.8in" height="1.7in" viewBox="0 0 130.6 125.1"><ellipse cx="45.8" cy="27.7" fill="none" stroke="#2b3d53" stroke-miterlimit="10" stroke-width="5.46" rx="15.8" ry="24.2"/><ellipse cx="86.1" cy="26.9" fill="none" stroke="#2b3d53" stroke-miterlimit="10" stroke-width="5.46" rx="15.8" ry="24.2"/><ellipse cx="15.6" cy="61" fill="none" stroke="#2b3d53" stroke-miterlimit="10" stroke-width="5.46" rx="12.9" ry="18"/><ellipse cx="115" cy="61" fill="none" stroke="#2b3d53" stroke-miterlimit="10" stroke-width="5.46" rx="12.9" ry="18"/><path fill="none" stroke="#2b3d53" stroke-miterlimit="10" stroke-width="5.46" d="M21.1 105.7c11.5-53.7 69.6-66 84.2-.2.5 2.1 2.6 13.9-3.7 15.8-17.3 5.1-23.2-8.4-26.3-12.4s-5.8-4.2-10.5-4.2-7.8.6-11.9 4.4c-1.4 1.4-13.1 15.9-26.3 10-7.5-3.3-6-11.3-5.5-13.4z"/><path fill="none" stroke="#2b3d53" stroke-miterlimit="10" stroke-width="5.46" d="M105.3 105.5c.5 2.1 2.6 13.9-3.7 15.8-17.3 5.1-23.2-8.4-26.3-12.4"/></svg>